<svg width="37" height="37" viewBox="0 0 37 37" fill="none" xmlns="http://www.w3.org/2000/svg">
<path fill-rule="evenodd" clip-rule="evenodd" d="M16.4577 3.71161e-08C13.8331 0.000223625 11.2467 0.628063 8.91411 1.83114C6.58155 3.03421 4.57053 4.77763 3.04883 6.91595C1.52712 9.05427 0.538864 11.5255 0.166499 14.1234C-0.205867 16.7213 0.04846 19.3706 0.908261 21.8502C1.76806 24.3299 3.20841 26.5679 5.10912 28.3777C7.00984 30.1875 9.31581 31.5166 11.8346 32.2539C14.3535 32.9913 17.0121 33.1157 19.5888 32.6166C22.1655 32.1176 24.5855 31.0096 26.6468 29.3851L33.7184 36.4565C34.0836 36.8092 34.5728 37.0043 35.0805 36.9999C35.5882 36.9955 36.0738 36.7919 36.4329 36.4329C36.7919 36.0739 36.9955 35.5882 36.9999 35.0805C37.0043 34.5728 36.8092 34.0837 36.4564 33.7185L29.3848 26.6472C31.298 24.2203 32.4891 21.3038 32.8221 18.2316C33.155 15.1593 32.6162 12.0554 31.2674 9.27501C29.9186 6.49464 27.8142 4.15016 25.1951 2.50988C22.576 0.8696 19.548 -0.000207461 16.4577 3.71161e-08ZM3.87133 16.4585C3.87133 13.1205 5.19738 9.91921 7.55778 7.5589C9.91819 5.19859 13.1196 3.87258 16.4577 3.87258C19.7958 3.87258 22.9972 5.19859 25.3576 7.5589C27.718 9.91921 29.044 13.1205 29.044 16.4585C29.044 19.7964 27.718 22.9977 25.3576 25.358C22.9972 27.7183 19.7958 29.0443 16.4577 29.0443C13.1196 29.0443 9.91819 27.7183 7.55778 25.358C5.19738 22.9977 3.87133 19.7964 3.87133 16.4585Z" fill="#64AAE9"/>
</svg>
